<?xml version="1.0" standalone="no"?>
<!DOCTYPE svg PUBLIC "-//W3C//DTD SVG 20010904//EN"
 "http://www.w3.org/TR/2001/REC-SVG-20010904/DTD/svg10.dtd">
<svg version="1.0" xmlns="http://www.w3.org/2000/svg"
 width="1774.000000pt" height="887.000000pt" viewBox="0 0 1774.000000 887.000000"
 preserveAspectRatio="xMidYMid meet">
<metadata>
Created by potrace 1.16, written by Peter Selinger 2001-2019
</metadata>
<g transform="translate(0.000000,887.000000) scale(0.100000,-0.100000)"
fill="#000000" stroke="none">
<path d="M0 4435 l0 -4435 8870 0 8870 0 0 4435 0 4435 -8870 0 -8870 0 0
-4435z m5374 1213 c10 -14 12 -105 10 -410 -2 -216 -1 -430 2 -474 l6 -81 67
38 c82 49 198 94 294 115 113 26 348 24 463 -3 215 -50 378 -138 525 -283 182
-180 270 -357 303 -614 58 -440 -161 -878 -557 -1119 -82 -49 -241 -111 -347
-133 -128 -28 -365 -25 -485 5 -454 116 -767 441 -859 893 -14 66 -16 209 -17
1068 0 546 3 996 8 1000 17 16 54 18 311 17 238 -2 265 -4 276 -19z m3807 -60
c252 -115 296 -454 81 -624 -61 -47 -157 -84 -221 -84 -105 1 -217 53 -291
137 -139 158 -100 428 79 543 75 47 124 60 216 57 60 -2 94 -10 136 -29z
m-713 -790 c18 -18 17 -591 0 -606 -8 -6 -84 -12 -178 -14 -162 -3 -166 -4
-219 -33 -73 -40 -139 -108 -170 -175 l-26 -55 -3 -585 c-2 -522 -4 -586 -19
-602 -15 -17 -40 -18 -309 -18 -284 0 -294 1 -304 20 -8 14 -10 205 -7 633 4
681 4 679 74 847 134 318 419 539 759 589 95 14 388 13 402 -1z m2352 -22
c124 -34 256 -100 358 -181 l81 -65 28 26 c99 93 282 189 429 226 74 19 115
23 244 22 134 0 168 -4 252 -27 107 -28 238 -86 320 -140 81 -54 199 -173 255
-258 63 -96 108 -205 134 -322 20 -87 21 -124 20 -706 -1 -432 -5 -618 -12
-628 -9 -10 -74 -13 -310 -13 -285 0 -299 1 -309 19 -7 13 -10 214 -9 592 1
571 1 571 -22 633 -28 75 -98 148 -184 191 -54 27 -69 30 -155 30 -118 0 -167
-21 -257 -110 -52 -52 -64 -72 -82 -129 -20 -66 -21 -88 -21 -628 0 -366 -4
-566 -10 -579 -10 -18 -24 -19 -308 -19 -170 0 -303 4 -312 10 -13 8 -15 84
-15 587 l0 578 -23 58 c-31 76 -113 164 -189 202 -52 27 -68 30 -153 30 -87 0
-101 -3 -161 -32 -73 -36 -136 -102 -172 -180 -22 -47 -22 -55 -25 -633 -2
-522 -4 -586 -19 -602 -15 -17 -40 -18 -308 -18 -240 0 -295 3 -304 14 -9 11
-11 174 -8 648 4 707 0 673 78 856 107 251 298 428 564 521 137 49 220 61 375
56 104 -3 157 -9 230 -29z m-1990 -28 c19 -5 94 -12 165 -15 107 -4 147 -1
229 16 73 15 103 17 113 9 18 -15 19 -2018 1 -2036 -9 -9 -92 -12 -310 -12
l-298 0 -10 26 c-7 17 -9 381 -8 1020 3 869 5 996 18 1004 15 9 33 7 100 -12z"/>
<path d="M5758 4217 c-336 -117 -445 -511 -213 -766 110 -120 226 -167 395
-159 90 4 107 9 174 42 380 187 392 679 23 861 -76 37 -83 39 -195 42 -102 3
-125 1 -184 -20z"/>
</g>
</svg>
